<?xml version="1.0" encoding="UTF-8" standalone="no"?>
<svg width="1200" height="800" viewBox="0 0 1200 800" fill="none" xmlns="http://www.w3.org/2000/svg">
  <!-- Background -->
  <rect width="1200" height="800" rx="12" fill="#F9FAFB"/>
  
  <!-- Header -->
  <rect width="1200" height="64" fill="#FFFFFF"/>
  <rect x="24" y="16" width="32" height="32" rx="6" fill="#4F46E5"/>
  <rect x="72" y="24" width="120" height="16" rx="4" fill="#E5E7EB"/>
  <rect x="1000" y="16" width="80" height="32" rx="16" fill="#EEF2FF"/>
  <rect x="1100" y="16" width="80" height="32" rx="16" fill="#4F46E5"/>
  
  <!-- Sidebar -->
  <rect width="240" height="736" y="64" fill="#FFFFFF"/>
  <rect x="24" y="96" width="192" height="16" rx="4" fill="#E5E7EB"/>
  <rect x="24" y="128" width="192" height="40" rx="8" fill="#EEF2FF"/>
  <rect x="24" y="184" width="192" height="40" rx="8" fill="#FFFFFF"/>
  <rect x="24" y="240" width="192" height="40" rx="8" fill="#FFFFFF"/>
  <rect x="24" y="296" width="192" height="40" rx="8" fill="#FFFFFF"/>
  
  <!-- Main Content - Eisenhower Matrix -->
  <rect x="264" y="88" width="912" height="688" rx="8" fill="#FFFFFF"/>
  
  <!-- Matrix Title -->
  <rect x="288" y="112" width="240" height="24" rx="4" fill="#E5E7EB"/>
  
  <!-- Matrix Grid -->
  <rect x="288" y="160" width="420" height="280" rx="8" fill="#FEE2E2"/>
  <rect x="288" y="456" width="420" height="280" rx="8" fill="#FEF3C7"/>
  <rect x="732" y="160" width="420" height="280" rx="8" fill="#DBEAFE"/>
  <rect x="732" y="456" width="420" height="280" rx="8" fill="#F3F4F6"/>
  
  <!-- Task Cards in Quadrant 1 -->
  <rect x="312" y="184" width="372" height="64" rx="6" fill="#FFFFFF"/>
  <rect x="328" y="200" width="240" height="16" rx="4" fill="#1F2937"/>
  <rect x="328" y="224" width="160" height="8" rx="4" fill="#9CA3AF"/>
  
  <rect x="312" y="264" width="372" height="64" rx="6" fill="#FFFFFF"/>
  <rect x="328" y="280" width="200" height="16" rx="4" fill="#1F2937"/>
  <rect x="328" y="304" width="140" height="8" rx="4" fill="#9CA3AF"/>
  
  <rect x="312" y="344" width="372" height="64" rx="6" fill="#FFFFFF"/>
  <rect x="328" y="360" width="220" height="16" rx="4" fill="#1F2937"/>
  <rect x="328" y="384" width="180" height="8" rx="4" fill="#9CA3AF"/>
  
  <!-- Task Cards in Quadrant 2 -->
  <rect x="756" y="184" width="372" height="64" rx="6" fill="#FFFFFF"/>
  <rect x="772" y="200" width="220" height="16" rx="4" fill="#1F2937"/>
  <rect x="772" y="224" width="160" height="8" rx="4" fill="#9CA3AF"/>
  
  <rect x="756" y="264" width="372" height="64" rx="6" fill="#FFFFFF"/>
  <rect x="772" y="280" width="240" height="16" rx="4" fill="#1F2937"/>
  <rect x="772" y="304" width="180" height="8" rx="4" fill="#9CA3AF"/>
  
  <!-- Task Cards in Quadrant 3 -->
  <rect x="312" y="480" width="372" height="64" rx="6" fill="#FFFFFF"/>
  <rect x="328" y="496" width="200" height="16" rx="4" fill="#1F2937"/>
  <rect x="328" y="520" width="140" height="8" rx="4" fill="#9CA3AF"/>
  
  <rect x="312" y="560" width="372" height="64" rx="6" fill="#FFFFFF"/>
  <rect x="328" y="576" width="180" height="16" rx="4" fill="#1F2937"/>
  <rect x="328" y="600" width="120" height="8" rx="4" fill="#9CA3AF"/>
  
  <!-- Task Cards in Quadrant 4 -->
  <rect x="756" y="480" width="372" height="64" rx="6" fill="#FFFFFF"/>
  <rect x="772" y="496" width="160" height="16" rx="4" fill="#1F2937"/>
  <rect x="772" y="520" width="120" height="8" rx="4" fill="#9CA3AF"/>
  
  <!-- Quadrant Labels -->
  <rect x="312" y="164" width="120" height="16" rx="4" fill="#EF4444"/>
  <rect x="756" y="164" width="120" height="16" rx="4" fill="#3B82F6"/>
  <rect x="312" y="460" width="120" height="16" rx="4" fill="#F59E0B"/>
  <rect x="756" y="460" width="120" height="16" rx="4" fill="#6B7280"/>
</svg>
