<?xml version="1.0" encoding="UTF-8" standalone="no"?>
<svg width="400" height="300" viewBox="0 0 400 300" fill="none" xmlns="http://www.w3.org/2000/svg">
  <!-- Background -->
  <rect width="400" height="300" rx="16" fill="#EFF6FF"/>
  
  <!-- Analytics Dashboard -->
  <rect x="50" y="50" width="300" height="200" rx="8" fill="#FFFFFF" stroke="#E5E7EB" stroke-width="2"/>
  
  <!-- Header -->
  <rect x="70" y="70" width="120" height="16" rx="4" fill="#1F2937"/>
  
  <!-- Charts -->
  <rect x="70" y="100" width="120" height="80" rx="4" fill="#F9FAFB"/>
  <path d="M80 160 L100 130 L120 150 L140 120 L160 140" stroke="#4F46E5" stroke-width="2" stroke-linecap="round" stroke-linejoin="round"/>
  <circle cx="100" cy="130" r="4" fill="#4F46E5"/>
  <circle cx="120" cy="150" r="4" fill="#4F46E5"/>
  <circle cx="140" cy="120" r="4" fill="#4F46E5"/>
  
  <rect x="210" y="100" width="120" height="80" rx="4" fill="#F9FAFB"/>
  <rect x="220" y="140" width="20" height="30" rx="2" fill="#EF4444"/>
  <rect x="250" y="120" width="20" height="50" rx="2" fill="#3B82F6"/>
  <rect x="280" y="130" width="20" height="40" rx="2" fill="#10B981"/>
  <rect x="310" y="150" width="20" height="20" rx="2" fill="#F59E0B"/>
  
  <!-- Stats -->
  <rect x="70" y="200" width="60" height="30" rx="4" fill="#F9FAFB"/>
  <rect x="80" y="208" width="40" height="6" rx="3" fill="#1F2937"/>
  <rect x="80" y="218" width="30" height="4" rx="2" fill="#4F46E5"/>
  
  <rect x="140" y="200" width="60" height="30" rx="4" fill="#F9FAFB"/>
  <rect x="150" y="208" width="40" height="6" rx="3" fill="#1F2937"/>
  <rect x="150" y="218" width="20" height="4" rx="2" fill="#10B981"/>
  
  <rect x="210" y="200" width="60" height="30" rx="4" fill="#F9FAFB"/>
  <rect x="220" y="208" width="40" height="6" rx="3" fill="#1F2937"/>
  <rect x="220" y="218" width="25" height="4" rx="2" fill="#F59E0B"/>
  
  <rect x="280" y="200" width="60" height="30" rx="4" fill="#F9FAFB"/>
  <rect x="290" y="208" width="40" height="6" rx="3" fill="#1F2937"/>
  <rect x="290" y="218" width="15" height="4" rx="2" fill="#EF4444"/>
</svg>
