<?xml version="1.0" encoding="UTF-8" standalone="no"?>
<svg width="400" height="300" viewBox="0 0 400 300" fill="none" xmlns="http://www.w3.org/2000/svg">
  <!-- Background -->
  <rect width="400" height="300" rx="16" fill="#F0FDF4"/>
  
  <!-- Task List -->
  <rect x="80" y="60" width="240" height="180" rx="8" fill="#FFFFFF" stroke="#E5E7EB" stroke-width="2"/>
  
  <!-- Task Items -->
  <rect x="100" y="80" width="200" height="40" rx="4" fill="#FAFAFA"/>
  <rect x="110" y="90" width="16" height="16" rx="4" fill="#4F46E5"/>
  <path d="M114 98L118 102L122 94" stroke="white" stroke-width="2" stroke-linecap="round" stroke-linejoin="round"/>
  <rect x="136" y="88" width="120" height="8" rx="4" fill="#1F2937"/>
  <rect x="136" y="102" width="80" height="6" rx="3" fill="#9CA3AF"/>
  <circle cx="190" cy="100" r="10" stroke="#10B981" stroke-width="2"/>
  
  <rect x="100" y="130" width="200" height="40" rx="4" fill="#FAFAFA"/>
  <rect x="110" y="140" width="16" height="16" rx="4" fill="#FFFFFF" stroke="#E5E7EB"/>
  <rect x="136" y="138" width="140" height="8" rx="4" fill="#1F2937"/>
  <rect x="136" y="152" width="100" height="6" rx="3" fill="#9CA3AF"/>
  <circle cx="190" cy="150" r="10" stroke="#F59E0B" stroke-width="2"/>
  
  <rect x="100" y="180" width="200" height="40" rx="4" fill="#FAFAFA"/>
  <rect x="110" y="190" width="16" height="16" rx="4" fill="#FFFFFF" stroke="#E5E7EB"/>
  <rect x="136" y="188" width="160" height="8" rx="4" fill="#1F2937"/>
  <rect x="136" y="202" width="120" height="6" rx="3" fill="#9CA3AF"/>
  <circle cx="190" cy="200" r="10" stroke="#EF4444" stroke-width="2"/>
</svg>
